<mxfile host="app.diagrams.net" agent="Mozilla/5.0 (Windows NT 10.0; Win64; x64) AppleWebKit/537.36 (KHTML, like Gecko) Chrome/135.0.0.0 Safari/537.36" version="27.0.2">
  <diagram name="Página-1" id="GlPCM_Bu-82W_WfwZit4">
    <mxGraphModel dx="1426" dy="743" grid="1" gridSize="10" guides="1" tooltips="1" connect="1" arrows="1" fold="1" page="1" pageScale="1" pageWidth="827" pageHeight="1169" math="0" shadow="0">
      <root>
        <mxCell id="0" />
        <mxCell id="1" parent="0" />
        <mxCell id="0jzmllWiCnoWf6jzwOlE-2" value="&lt;div&gt;&amp;lt;INTERFACE&amp;gt;&lt;/div&gt;Reprodutor Musical&lt;div&gt;tocar() : void&lt;/div&gt;&lt;div&gt;pausar() : void&lt;/div&gt;&lt;div&gt;selecionarMusica() : void&lt;/div&gt;" style="rounded=1;whiteSpace=wrap;html=1;" parent="1" vertex="1">
          <mxGeometry x="280" y="260" width="210" height="100" as="geometry" />
        </mxCell>
        <mxCell id="0jzmllWiCnoWf6jzwOlE-3" value="&lt;div&gt;&amp;lt;INTERFACE&amp;gt;&lt;/div&gt;Aparelho Telefônico&lt;div&gt;ligar() : void&lt;/div&gt;&lt;div&gt;atender() : void&lt;/div&gt;&lt;div&gt;iniciarCorreioVoz() : void&lt;/div&gt;" style="rounded=1;whiteSpace=wrap;html=1;" parent="1" vertex="1">
          <mxGeometry x="520" y="260" width="210" height="100" as="geometry" />
        </mxCell>
        <mxCell id="0jzmllWiCnoWf6jzwOlE-4" value="&lt;div&gt;&amp;lt;INTERFACE&amp;gt;&lt;/div&gt;Navegador na Internet&lt;br&gt;&lt;div&gt;&lt;div&gt;exibirPagina() : void&lt;/div&gt;&lt;div&gt;adicionarNovaAba() : void&lt;/div&gt;&lt;div&gt;atualizarPagina() : void&lt;/div&gt;&lt;/div&gt;" style="rounded=1;whiteSpace=wrap;html=1;" parent="1" vertex="1">
          <mxGeometry x="40" y="260" width="210" height="100" as="geometry" />
        </mxCell>
        <mxCell id="0jzmllWiCnoWf6jzwOlE-5" value="&amp;lt;CLASS&amp;gt;&lt;div&gt;Iphone&lt;/div&gt;&lt;div&gt;&lt;br&gt;&lt;/div&gt;" style="rounded=1;whiteSpace=wrap;html=1;" parent="1" vertex="1">
          <mxGeometry x="325" y="130" width="120" height="60" as="geometry" />
        </mxCell>
        <mxCell id="0jzmllWiCnoWf6jzwOlE-6" value="" style="endArrow=classic;html=1;rounded=0;entryX=0;entryY=1;entryDx=0;entryDy=0;exitX=0.624;exitY=0.02;exitDx=0;exitDy=0;exitPerimeter=0;" parent="1" source="0jzmllWiCnoWf6jzwOlE-4" target="0jzmllWiCnoWf6jzwOlE-5" edge="1">
          <mxGeometry width="50" height="50" relative="1" as="geometry">
            <mxPoint x="260" y="170" as="sourcePoint" />
            <mxPoint x="310" y="120" as="targetPoint" />
            <Array as="points" />
          </mxGeometry>
        </mxCell>
        <mxCell id="0jzmllWiCnoWf6jzwOlE-7" value="" style="endArrow=classic;html=1;rounded=0;entryX=0.5;entryY=1;entryDx=0;entryDy=0;exitX=0.5;exitY=0;exitDx=0;exitDy=0;" parent="1" source="0jzmllWiCnoWf6jzwOlE-2" target="0jzmllWiCnoWf6jzwOlE-5" edge="1">
          <mxGeometry width="50" height="50" relative="1" as="geometry">
            <mxPoint x="270" y="180" as="sourcePoint" />
            <mxPoint x="335" y="110" as="targetPoint" />
            <Array as="points" />
          </mxGeometry>
        </mxCell>
        <mxCell id="0jzmllWiCnoWf6jzwOlE-8" value="" style="endArrow=classic;html=1;rounded=0;entryX=1;entryY=1;entryDx=0;entryDy=0;exitX=0.095;exitY=0;exitDx=0;exitDy=0;exitPerimeter=0;" parent="1" source="0jzmllWiCnoWf6jzwOlE-3" target="0jzmllWiCnoWf6jzwOlE-5" edge="1">
          <mxGeometry width="50" height="50" relative="1" as="geometry">
            <mxPoint x="280" y="190" as="sourcePoint" />
            <mxPoint x="345" y="120" as="targetPoint" />
            <Array as="points" />
          </mxGeometry>
        </mxCell>
        <mxCell id="0jzmllWiCnoWf6jzwOlE-9" value="&lt;div&gt;&amp;lt;CLASS&amp;gt;&lt;/div&gt;MAIN" style="rounded=1;whiteSpace=wrap;html=1;" parent="1" vertex="1">
          <mxGeometry x="325" y="20" width="120" height="60" as="geometry" />
        </mxCell>
        <mxCell id="0jzmllWiCnoWf6jzwOlE-10" value="" style="endArrow=classic;html=1;rounded=0;entryX=0.5;entryY=1;entryDx=0;entryDy=0;exitX=0.5;exitY=0;exitDx=0;exitDy=0;" parent="1" source="0jzmllWiCnoWf6jzwOlE-5" target="0jzmllWiCnoWf6jzwOlE-9" edge="1">
          <mxGeometry width="50" height="50" relative="1" as="geometry">
            <mxPoint x="290" y="200" as="sourcePoint" />
            <mxPoint x="355" y="130" as="targetPoint" />
            <Array as="points" />
          </mxGeometry>
        </mxCell>
      </root>
    </mxGraphModel>
  </diagram>
</mxfile>
